<svg width="18" height="18" viewBox="0 0 18 18" fill="none" xmlns="http://www.w3.org/2000/svg">
<g id="svgexport-18 (11) 2">
<g id="Group">
<path id="Vector" d="M13.9453 7.94531H10.0547V4.05469C10.0547 3.4722 9.58249 3 9 3C8.41751 3 7.94531 3.4722 7.94531 4.05469V7.94531H4.05469C3.4722 7.94531 3 8.41751 3 9C3 9.58249 3.4722 10.0547 4.05469 10.0547H7.94531V13.9453C7.94531 14.5278 8.41751 15 9 15C9.58249 15 10.0547 14.5278 10.0547 13.9453V10.0547H13.9453C14.5278 10.0547 15 9.58249 15 9C15 8.41751 14.5278 7.94531 13.9453 7.94531Z" fill="#5A5A5A"/>
</g>
</g>
</svg>
